<svg xmlns="http://www.w3.org/2000/svg" width="188" height="68" viewBox="0 0 188 68" fill="none"><g clip-path="url(#clip0_24_351)"><path fill-rule="evenodd" clip-rule="evenodd" d="M182.626 53.8106C182.398 53.5839 182.286 53.3159 182.286 53.0026H187.088V53.4602C187.088 53.9343 187.071 54.297 187.038 54.5568C186.926 55.4348 186.632 56.2222 186.155 56.9189C185.678 57.6156 185.048 58.1639 184.256 58.5555C183.464 58.9513 182.56 59.1451 181.539 59.1451C180.362 59.1451 179.325 58.8854 178.434 58.3618C177.538 57.8382 176.845 57.1251 176.356 56.2181C175.863 55.3112 175.618 54.297 175.618 53.1716C175.618 52.0462 175.879 51.0238 176.398 50.1004C176.916 49.177 177.633 48.4514 178.546 47.9155C179.458 47.3796 180.474 47.1157 181.593 47.1157C182.962 47.1157 184.09 47.4496 184.981 48.1134C185.869 48.7771 186.491 49.6139 186.839 50.6281C186.669 50.6858 186.511 50.7105 186.362 50.7105C186.126 50.7105 185.902 50.6569 185.69 50.5497C185.479 50.4425 185.309 50.29 185.172 50.0839C184.819 49.5686 184.347 49.1316 183.745 48.7853C183.144 48.4349 182.41 48.2618 181.539 48.2618C180.669 48.2618 179.86 48.4844 179.155 48.9296C178.446 49.3748 177.894 49.9643 177.501 50.7023C177.102 51.4402 176.908 52.2358 176.908 53.0892C176.908 53.9879 177.098 54.8124 177.476 55.5544C177.853 56.2964 178.396 56.886 179.105 57.3271C179.814 57.764 180.635 57.9867 181.577 57.9867C182.278 57.9867 182.937 57.8506 183.555 57.5744C184.173 57.2982 184.679 56.9024 185.072 56.383C185.466 55.8677 185.694 55.2535 185.753 54.5444L185.769 54.1569H183.443C183.128 54.1569 182.854 54.0456 182.63 53.8188L182.626 53.8106Z" fill="#53C7DF"/><path fill-rule="evenodd" clip-rule="evenodd" d="M163.273 58.671C163.037 58.436 162.917 58.1475 162.917 57.8094V47.2271C163.368 47.2271 163.796 47.3301 164.198 47.5404C164.6 47.7506 164.932 48.0309 165.189 48.3937L171.351 57.0839V47.2271C171.691 47.2271 171.981 47.3466 172.226 47.5816C172.471 47.8166 172.591 48.1051 172.591 48.4432V59.0255C172.172 59.0255 171.778 58.9307 171.401 58.737C171.027 58.5473 170.721 58.2794 170.484 57.9455L164.136 48.9667V59.0255C163.796 59.0255 163.509 58.906 163.269 58.671H163.273Z" fill="#53C7DF"/><path d="M159.475 47.2311H158.235V59.0254H159.475V47.2311Z" fill="#53C7DF"/><path fill-rule="evenodd" clip-rule="evenodd" d="M150.576 59.0255V48.3937H147.777C147.449 48.3937 147.171 48.2783 146.943 48.0474C146.715 47.8166 146.603 47.5445 146.603 47.2271H154.615C154.942 47.2271 155.22 47.3384 155.448 47.5651C155.676 47.7918 155.788 48.0639 155.788 48.3937H151.832V59.0255H150.576Z" fill="#53C7DF"/><path fill-rule="evenodd" clip-rule="evenodd" d="M120.703 47.2311V57.7969C120.703 58.135 120.583 58.4236 120.338 58.6668C120.093 58.91 119.799 59.0296 119.446 59.0296V53.6291H112.691V59.0296H111.451V47.2352C111.792 47.2352 112.082 47.3548 112.326 47.598C112.571 47.8412 112.691 48.1298 112.691 48.4678V52.4501H119.446V47.2352H120.703V47.2311Z" fill="#53C7DF"/><path fill-rule="evenodd" clip-rule="evenodd" d="M134.3 50.0633C133.777 49.1522 133.064 48.4308 132.16 47.9031C131.256 47.3754 130.249 47.1116 129.137 47.1116C128.026 47.1116 126.985 47.3795 126.073 47.9113C125.165 48.4473 124.447 49.1769 123.929 50.1045C123.407 51.032 123.145 52.0544 123.145 53.1675C123.145 54.2805 123.407 55.2782 123.929 56.1892C124.447 57.1003 125.161 57.8217 126.065 58.3494C126.973 58.8771 127.98 59.1409 129.088 59.1409C130.195 59.1409 131.24 58.8771 132.152 58.3412C133.064 57.8052 133.777 57.0756 134.3 56.148C134.818 55.2205 135.08 54.1981 135.08 53.085C135.08 51.972 134.818 50.9743 134.3 50.0633ZM133.189 55.5832C132.786 56.3129 132.231 56.8942 131.522 57.327C130.817 57.764 130.021 57.9784 129.137 57.9784C128.254 57.9784 127.425 57.7599 126.711 57.3188C125.998 56.8818 125.443 56.2882 125.04 55.5379C124.638 54.7917 124.435 53.9714 124.435 53.085C124.435 52.1987 124.634 51.3989 125.032 50.661C125.426 49.9272 125.977 49.3418 126.687 48.909C127.392 48.4761 128.192 48.2576 129.088 48.2576C129.983 48.2576 130.788 48.4802 131.505 48.9255C132.227 49.3707 132.786 49.9684 133.189 50.7228C133.587 51.4773 133.79 52.2894 133.79 53.1675C133.79 54.0456 133.587 54.8494 133.189 55.5832Z" fill="#53C7DF"/><path fill-rule="evenodd" clip-rule="evenodd" d="M140.462 52.1904L141.971 52.479C142.448 52.5697 142.875 52.6934 143.253 52.85C143.63 53.0067 143.974 53.2252 144.281 53.5096C144.642 53.8477 144.903 54.2146 145.061 54.6144C145.218 55.0143 145.297 55.373 145.297 55.6863C145.297 56.383 145.123 56.9931 144.779 57.5166C144.435 58.0402 143.962 58.4442 143.361 58.7245C142.759 59.0049 142.088 59.145 141.341 59.145C140.595 59.145 139.931 58.9842 139.313 58.6627C138.695 58.3411 138.198 57.9248 137.821 57.4136C137.443 56.9024 137.223 56.3665 137.165 55.8017C137.277 55.7687 137.398 55.7522 137.522 55.7522C137.758 55.7522 137.986 55.8182 138.202 55.946C138.418 56.0738 138.588 56.2469 138.712 56.4613C138.982 56.923 139.359 57.2899 139.832 57.5661C140.309 57.8423 140.81 57.9784 141.341 57.9784C142.075 57.9784 142.71 57.7928 143.232 57.4218C143.759 57.0508 144.02 56.5231 144.02 55.8347C144.02 55.2163 143.804 54.7422 143.373 54.4083C142.942 54.0785 142.452 53.8559 141.897 53.7405L140.317 53.4189C139.977 53.353 139.628 53.2375 139.272 53.0726C138.915 52.9077 138.596 52.6934 138.314 52.4213C137.758 51.906 137.48 51.2216 137.48 50.3807C137.48 49.7293 137.655 49.1563 137.999 48.6575C138.343 48.1628 138.803 47.7753 139.384 47.5032C139.96 47.227 140.578 47.0909 141.233 47.0909C142.038 47.0909 142.718 47.2311 143.278 47.5114C143.837 47.7918 144.269 48.1504 144.567 48.5833C144.866 49.0161 145.061 49.4655 145.152 49.9231L145.069 49.9396C144.932 49.9643 144.824 49.9725 144.746 49.9725C144.517 49.9725 144.31 49.9231 144.119 49.8283C143.929 49.7334 143.767 49.5933 143.643 49.416C143.066 48.6163 142.262 48.2164 141.233 48.2164C141.13 48.2164 140.968 48.2287 140.74 48.2494C140.184 48.3071 139.711 48.5297 139.313 48.9254C138.915 49.3212 138.72 49.7912 138.72 50.3436C138.72 50.7929 138.866 51.1845 139.152 51.5185C139.442 51.8524 139.873 52.0709 140.45 52.1863L140.462 52.1904Z" fill="#53C7DF"/><path fill-rule="evenodd" clip-rule="evenodd" d="M143.97 17.1289L144.061 17.2155H150.103C151.322 17.2361 152.753 17.2773 153.512 17.3763C154.648 17.6195 155.544 18.04 156.182 18.6336C157.26 19.6436 157.787 20.8762 157.787 22.4057C157.787 23.9351 157.223 25.2089 156.058 26.3014C154.905 27.3815 153.147 27.9298 150.833 27.9298H150.381C149.937 27.9298 149.564 28.0864 149.274 28.3956C148.988 28.6965 148.838 29.0593 148.838 29.4633C148.838 29.7766 148.942 30.0693 149.145 30.3414L149.883 31.3184L153.151 35.7707L153.321 36.0098L158.181 42.7005L158.272 42.8283H162.485L162.572 42.6552L173.234 21.2637L178.682 32.2089H173.52C172.458 32.2377 171.604 32.5222 170.978 33.0581C170.376 33.5734 169.908 34.1382 169.593 34.7401L169.419 35.1234L169.224 35.5563H180.382L183.932 42.6511L184.019 42.8242H187.996L187.772 42.379L173.549 13.901L173.271 13.3445L172.993 13.901L160.271 39.3036L153.852 30.6712C155.95 30.329 157.721 29.4757 159.126 28.1318C160.661 26.6642 161.436 24.6936 161.436 22.2779C161.436 20.7072 161.055 19.2561 160.308 17.9616C159.553 16.6631 158.388 15.6118 156.833 14.8409C155.291 14.0742 153.354 13.6866 151.073 13.6866H140.375L140.931 14.2184L143.966 17.1207L143.97 17.1289Z" fill="url(#paint0_linear_24_351)"/><path fill-rule="evenodd" clip-rule="evenodd" d="M158.438 37.3784L159.168 38.3513L160.329 39.9013L173.275 14.0411L187.498 42.5232L173.275 14.0411L160.329 39.9013L159.168 38.3513L158.438 37.3784Z" fill="url(#paint1_linear_24_351)"/><path fill-rule="evenodd" clip-rule="evenodd" d="M120.495 17.232H129.722C130.846 17.2567 132.086 17.3062 133.002 17.4092C133.317 17.4546 133.624 17.504 133.894 17.5659C134.71 17.8173 135.374 18.1801 135.88 18.6501C136.958 19.6601 137.485 20.8927 137.485 22.4221C137.485 23.9516 136.921 25.2254 135.755 26.3179C134.603 27.3979 132.844 27.9462 130.531 27.9462H130.079C129.635 27.9462 129.262 28.1029 128.971 28.4121C128.685 28.713 128.536 29.0758 128.536 29.4798C128.536 29.7931 128.64 30.0899 128.843 30.3579L129.581 31.3349L135.776 39.7736C136.485 40.7341 137.377 41.4926 138.43 42.0286C139.479 42.5645 140.632 42.8366 141.855 42.8366H142.469L142.108 42.346L133.549 30.6877C135.648 30.3455 137.422 29.4922 138.828 28.1482C140.362 26.6806 141.138 24.7101 141.138 22.2943C141.138 20.7237 140.756 19.2726 140.01 17.9781C139.255 16.6795 138.09 15.6283 136.535 14.8574C134.992 14.0906 133.056 13.7031 130.775 13.7031H120.487V17.2237L120.495 17.232Z" fill="url(#paint2_linear_24_351)"/><path fill-rule="evenodd" clip-rule="evenodd" d="M75.1594 14.0165C75.1594 14.8574 75.4662 15.5954 76.0675 16.2096C76.6729 16.828 77.4235 17.1372 78.3026 17.1372H84.7632V42.8366H88.4206V17.1372H99.4094V17.063V13.7073H75.1594V14.0123V14.0165Z" fill="url(#paint3_linear_24_351)"/><path fill-rule="evenodd" clip-rule="evenodd" d="M104.742 39.4356V30.2384H110.892C110.921 30.2301 113.819 29.8096 113.794 26.9816V26.6766H104.742V17.1537H118.858V13.7114H100.828V42.8325H119.72V39.4315H104.742V39.4356Z" fill="url(#paint4_linear_24_351)"/><path fill-rule="evenodd" clip-rule="evenodd" d="M62.7897 41.6166L62.7773 41.6867L62.7358 41.9588L62.5451 41.7609L62.4746 41.6908C59.9741 39.3369 59.1987 38.6938 55.6574 36.4141C56.0679 42.5318 55.6823 48.5959 54.5461 53.9716L54.5087 54.153L54.347 54.0664C51.2784 52.3968 49.2217 51.5394 43.9097 50.1089L43.8392 50.484L43.6692 50.1377C37.8679 53.3285 35.1477 55.2949 32.4689 57.3397C33.4061 60.9798 34.1193 62.9586 36.0392 65.6835L36.3959 66.1865L35.8609 65.8814C32.2699 63.8284 29.7694 62.3567 26.2903 60.1347V60.1429L26.2198 60.0935C26.4147 62.3237 26.7216 64.8302 29.3008 67.4892L29.8067 68.0127L29.1432 67.7077C25.4692 66.0257 22.9356 64.7807 18.7764 61.7054L18.6852 61.7342L18.6769 61.7177C17.3375 62.0063 15.1937 62.4721 13.564 62.9998L13.4603 63.0328L13.4023 62.9421C11.7892 60.3367 11.0469 58.7042 10.6447 55.3939C8.55061 53.2749 6.56848 51.259 4.52414 47.9446C4.38315 47.9899 4.23802 48.0188 4.08044 48.0188C4.03068 48.0188 3.98507 48.0188 3.93531 48.0105C3.58284 49.7255 3.74871 50.8509 4.23802 52.5824L3.98092 52.6772C2.72447 50.0718 1.90756 47.9899 1.33531 45.9328L1.32702 45.904L1.39337 45.8834L1.32702 45.8998L1.31873 45.871C1.29799 45.7885 1.27311 45.7102 1.25238 45.6278L1.20262 45.4422C0.945521 44.4611 0.729892 43.4222 0.539142 42.2597C0.38986 41.3528 0.257165 40.4046 0.145204 39.5966L0.0622692 38.5454L0.0290954 37.9105L0.0166553 37.6838V37.6302V37.5972L0.00836182 37.4076L0.020802 37.1973C0.0290954 36.9088 0.049829 36.6161 0.0912963 36.3275C0.232285 35.0825 0.634517 33.3263 2.4881 30.7457C2.1688 27.728 2.05684 25.6256 3.06864 22.138L3.08938 22.0679L3.09767 22.039L3.11011 21.9896L3.1267 21.9319L3.14743 21.8659L3.17231 21.8576C4.0763 19.8624 4.80612 18.4896 5.76816 16.9808C6.14551 16.3706 6.56848 15.7358 7.06194 15.035L7.47661 14.4248L7.48905 14.4001L7.49734 14.3836L7.50978 14.3713L7.5471 14.3342L7.5554 14.3424L7.84982 14.0538C9.17677 12.6975 10.8355 11.1145 14.9158 8.49263C16.1723 6.5798 17.1758 5.06686 20.2527 3.36016L20.3315 3.31894L20.6922 3.15816C21.0364 2.99739 21.3723 2.84485 21.6833 2.71294L21.787 2.66759L21.8284 2.63049L21.9279 2.56865L22.0316 2.5233L22.044 2.51093H22.0689L22.1353 2.47383C22.5292 2.30069 22.6909 2.23061 23.0558 2.08632C23.4166 1.93791 23.5617 1.88432 23.9515 1.73591C24.2874 1.61224 24.4201 1.56277 24.7353 1.45558C25.0546 1.34016 25.1748 1.30305 25.5107 1.19175L25.7885 1.10105L25.8342 1.08869C25.9586 1.05158 26.0995 1.03509 26.2737 1.03509C26.394 1.03509 26.5267 1.04334 26.6801 1.05983C26.7133 1.05983 26.7464 1.06807 26.7838 1.0722C27.3104 0.758889 27.7168 0.565133 28.1024 0.453827L28.1605 0.441459L28.2766 0.412602V0.433214H28.2807V0.412602C28.43 0.3755 28.6125 0.334275 28.7949 0.293051C28.9732 0.251826 29.1515 0.210601 29.305 0.177622H29.3133L29.3506 0.169377L29.4999 0.161132C29.4999 0.161132 29.5247 0.161132 29.5372 0.161132L29.9021 0.0168457L29.6948 0.152887C29.7196 0.152887 29.7445 0.152887 29.7694 0.152887C29.8316 0.152887 29.8938 0.152887 29.956 0.157009L29.9477 0.313663L29.9643 0.227091V0.293051L29.9767 0.251826V0.157009H30.0223C30.0389 0.157009 30.0514 0.157009 30.068 0.157009C30.6029 0.185867 31.2332 0.32603 32.5518 0.89493L32.6099 0.820726L32.7094 0.936155C33.5388 0.915542 34.4759 0.890808 35.5707 0.890808C37.4242 0.890808 39.2654 0.960889 41.177 1.10105L41.1231 1.04334L41.5212 1.12167L41.5876 1.13403L41.6912 1.14228L42.0395 1.17113L41.9732 1.22473C43.0721 1.48856 44.482 1.84722 45.6928 2.17289L45.7053 2.13579L45.8587 2.20175L45.9043 2.22649C54.119 4.10221 58.0376 6.55095 60.3805 8.01442L60.4012 8.02679L60.4178 8.0474C63.3496 11.9555 62.7649 15.4307 61.5996 19.8954C64.0255 21.7999 67.6456 24.665 70.3824 29.2204L70.4156 29.2781L70.3907 29.3399C68.9435 32.9924 67.8529 35.1278 62.7939 41.6166H62.7897ZM61.0937 20.1633C60.6459 20.1509 60.1856 20.1468 59.717 20.1468C56.9304 20.1468 53.7748 20.3488 50.333 20.7487C50.333 20.7734 50.333 20.7982 50.333 20.8229C50.333 21.2434 50.1381 21.6144 49.8312 21.8576C51.6351 25.2793 53.5508 29.1998 55.4625 35.4288C58.3445 29.2946 59.8663 25.5514 61.0896 20.1674L61.0937 20.1633ZM25.2951 50.1254C24.9468 50.0223 24.6565 49.7873 24.4782 49.4823C22.1809 50.5252 20.431 51.3786 18.4115 52.5452C18.4447 52.6607 18.4613 52.7844 18.4613 52.9122C18.4613 53.2255 18.3576 53.5099 18.1834 53.7449C20.7793 55.8432 21.9818 56.746 25.6849 59.2896C25.1499 56.5358 24.8804 54.5776 25.2951 50.1295V50.1254ZM45.3735 35.5112C42.7238 33.0831 41.0236 31.6279 36.993 28.4371C36.8271 28.5484 36.6405 28.6267 36.4332 28.6638L37.0262 32.3576C37.3372 34.3034 37.6523 36.2492 37.9675 38.195C37.9841 38.195 37.9965 38.195 38.0131 38.195C38.548 38.195 39.0124 38.5124 39.2198 38.9659C40.9987 38.2279 42.645 37.556 45.245 36.5954C45.2118 36.4718 45.1911 36.3399 45.1911 36.2079C45.1911 35.9565 45.2533 35.7215 45.3652 35.5154L45.3735 35.5112ZM48.1228 36.4512C48.0025 37.1396 47.4013 37.6673 46.6714 37.6673C46.6217 37.6673 46.5719 37.6673 46.5263 37.659C44.7639 45.8009 44.6271 46.444 44.1171 49.0205C46.9617 45.3516 48.4421 43.5707 54.94 36.2244C52.6842 36.2409 51.0462 36.2615 48.1228 36.4512ZM55.11 35.7833H55.139C54.0982 32.4647 52.7837 28.3464 49.4705 22.0596C49.3378 22.1091 49.1926 22.138 49.0434 22.1421C48.6785 25.572 48.3052 28.5278 47.1068 34.8022C47.6501 34.9671 48.0564 35.437 48.1311 36.0101C50.3703 35.8658 52.1119 35.7792 55.11 35.7792V35.7833ZM46.6714 34.7403C46.6714 34.7403 46.6756 34.7403 46.6797 34.7403C47.5132 30.3499 48.0813 27.1138 48.6121 22.0885C48.2804 21.9896 48.0067 21.7628 47.8367 21.4701C45.0915 22.7811 41.8198 24.3847 37.5238 26.7799C37.5818 26.9324 37.615 27.0973 37.615 27.2704C37.615 27.5961 37.503 27.8929 37.3206 28.132C40.6877 30.8116 42.8316 32.5802 45.6431 35.1608C45.9084 34.9011 46.2734 34.7403 46.6756 34.7403H46.6714ZM37.6316 21.363C37.2833 22.8512 36.9225 24.3847 36.5742 25.91C36.8686 25.9925 37.1257 26.1656 37.3081 26.3965C40.074 24.8629 43.2753 23.1521 47.6874 21.0538C47.6749 20.9796 47.6667 20.9012 47.6667 20.8188C47.6667 20.5467 47.7496 20.2952 47.8906 20.085C45.6016 18.2587 43.6941 16.7911 40.1528 14.4537C39.9081 14.7093 39.5681 14.8701 39.1825 14.8701C39.1659 14.8701 39.1451 14.8701 39.1285 14.8701C38.6434 17.0426 38.1292 19.2399 37.6316 21.3671V21.363ZM38.7097 14.7794C38.4443 14.6804 38.2204 14.4991 38.0711 14.2682C29.7777 17.6816 23.4622 20.8559 17.097 24.8011C17.1509 24.9289 17.1799 25.069 17.1882 25.2133C23.0476 25.5349 28.119 25.9513 34.7994 26.9654C34.9362 26.347 35.4794 25.8853 36.1346 25.8606C36.429 24.5991 36.7235 23.3335 37.0262 22.072C37.5901 19.6851 38.1748 17.224 38.7097 14.7835V14.7794ZM36.653 32.7409C36.4332 31.3847 36.2134 30.0284 35.9936 28.6721C35.5955 28.6185 35.2514 28.4 35.0274 28.0908C31.2912 29.8923 22.5707 34.1673 15.2849 39.7079C15.3347 39.8068 15.3761 39.914 15.401 40.0253C21.0654 39.5306 25.519 39.3204 30.2421 39.3204C32.2533 39.3204 34.3723 39.3616 36.6903 39.4399C36.7193 38.904 37.0635 38.4547 37.5445 38.2733C37.2459 36.4264 36.9474 34.5837 36.6488 32.7368L36.653 32.7409ZM36.7442 39.8852C34.3598 39.8027 32.2989 39.7615 30.3251 39.7615C25.6476 39.7615 21.0447 39.98 15.4383 40.4706C15.4176 40.6684 15.3595 40.8539 15.2642 41.0188C17.8227 43.0059 19.4648 44.2014 24.6938 47.7962C24.9509 47.5323 25.3117 47.3674 25.7098 47.3674C26.0332 47.3674 26.3359 47.4787 26.5723 47.6601C29.5372 45.1949 31.9215 43.3975 36.8769 40.1779C36.823 40.0872 36.7774 39.9882 36.7483 39.8852H36.7442ZM18.2332 52.1495C19.9997 51.1312 21.6377 50.2738 24.3165 49.0659C24.2957 48.9711 24.2874 48.8763 24.2874 48.7773C24.2874 48.5423 24.3455 48.3238 24.4491 48.1301C20.5637 45.467 17.5531 43.3728 14.9905 41.361C14.837 41.5012 14.6546 41.6042 14.4514 41.6619C14.8661 44.9558 15.3139 47.5942 16.7155 51.5559C16.8233 51.527 16.9394 51.5146 17.0555 51.5146C17.549 51.5146 17.9844 51.7702 18.2374 52.1536L18.2332 52.1495ZM15.0361 39.3657C18.5732 36.7068 24.4367 32.6667 34.8243 27.6909C34.7952 27.6002 34.7786 27.5054 34.7662 27.4106C30.5614 26.7799 25.3531 26.0873 17.1343 25.6462C16.9768 26.1862 16.475 26.582 15.882 26.582C15.8364 26.582 15.7949 26.582 15.7493 26.5737C15.2268 29.0513 14.3519 33.5407 14.2897 38.9823C14.5758 39.0318 14.837 39.1679 15.0319 39.3657H15.0361ZM15.3471 26.4666C15.0941 26.3511 14.8827 26.1615 14.75 25.9224C10.7442 27.221 6.29894 28.8122 2.92765 30.8652C4.67343 33.5531 7.10755 36.076 12.971 39.4853C13.1949 39.205 13.5225 39.0153 13.8999 38.9741C13.9745 35.4824 14.2275 31.5413 15.3512 26.4707L15.3471 26.4666ZM14.6048 25.5143C14.5924 25.4401 14.5841 25.3659 14.5841 25.2875C14.5841 25.2504 14.5841 25.2133 14.5882 25.1721C11.387 24.0632 9.08139 23.1974 7.3605 22.0761C7.11585 22.3276 6.77581 22.4801 6.39846 22.4801C6.27821 22.4801 6.15795 22.4636 6.04599 22.4307C4.59049 25.3824 3.98507 26.8541 2.94424 30.3747C4.56561 29.4182 7.52637 27.7775 14.5965 25.5101L14.6048 25.5143ZM7.6176 21.6969C8.99846 22.6121 10.4457 23.2675 14.7002 24.7434C14.9075 24.2981 15.3595 23.989 15.882 23.989C16.0023 23.989 16.1142 24.0054 16.222 24.0343C17.9595 20.5055 20.0951 16.4531 24.7311 9.74585C24.6772 9.68402 24.6275 9.61394 24.586 9.54385C15.2144 14.2888 10.6613 17.7228 7.53881 20.4643C7.65907 20.6663 7.73371 20.9012 7.73371 21.1527C7.73371 21.3465 7.68809 21.532 7.61345 21.701L7.6176 21.6969ZM16.5911 24.1951C16.6989 24.2652 16.7943 24.3476 16.8731 24.4424C19.838 22.5997 26.3815 18.6009 37.8928 13.8848C37.8638 13.7735 37.8472 13.6622 37.8472 13.5426C37.8472 13.4561 37.8555 13.3736 37.8721 13.2953C34.1276 11.8772 32.2284 11.2258 26.8625 9.45316C26.6594 9.88602 26.2157 10.187 25.7015 10.187C25.4527 10.187 25.2246 10.1169 25.0255 9.9932C22.3633 13.8724 19.527 18.1928 16.587 24.1992L16.5911 24.1951ZM26.9745 9.07389C33.5927 11.2547 36.6488 12.3595 38.0214 12.8872C38.1126 12.7264 38.237 12.5904 38.3863 12.479C37.2998 10.389 36.2922 8.52561 34.7372 6.11397L34.6998 6.1387L34.6708 6.07274C32.0501 6.8354 30.0389 7.43728 26.9372 8.5421C26.9704 8.65752 26.9911 8.77708 26.9911 8.90487C26.9911 8.96259 26.9869 9.01618 26.9786 9.06977L26.9745 9.07389ZM38.7636 12.2812C38.8963 12.2358 39.0373 12.2111 39.1866 12.2111C39.3691 12.2111 39.5432 12.2482 39.7008 12.3141C40.8909 10.3148 41.6912 8.91724 42.392 7.4785C42.0727 7.24352 41.8612 6.86425 41.8571 6.43964C39.622 6.24176 38.1955 6.1387 35.1477 6.03564C36.1968 7.68462 37.2211 9.31712 38.7636 12.277V12.2812ZM40.0657 12.545C40.3435 12.7882 40.5218 13.1428 40.5218 13.5385C40.5218 13.7488 40.4721 13.9425 40.385 14.1198C42.7652 15.6987 45.1828 17.3518 48.185 19.7717C48.2679 19.7057 48.3592 19.6521 48.4587 19.6068C47.3556 15.7069 46.1199 11.8401 43.6816 7.63928C43.5282 7.70111 43.3582 7.73822 43.1799 7.73822C43.0348 7.73822 42.8938 7.71348 42.7652 7.67226C42.2096 8.8183 41.5958 9.98496 40.0699 12.545H40.0657ZM48.8733 19.4996C48.9148 19.4955 48.9604 19.4914 49.0019 19.4914C49.5617 19.4914 50.0386 19.8335 50.2376 20.32C53.6918 19.9201 56.8641 19.7181 59.6631 19.7181C60.0736 19.7181 60.48 19.7222 60.874 19.7305C58.2159 16.9973 53.3974 12.174 44.258 7.18168C44.1876 7.28062 44.1046 7.37132 44.0051 7.44964C45.5021 10.0221 47.1068 13.1757 48.8692 19.4996H48.8733ZM54.2641 53.5264C55.3091 48.2991 55.6491 42.4328 55.2552 36.5212C49.118 43.447 47.393 45.4587 44.1088 49.7131C48.6328 50.9375 50.9177 51.7249 54.2641 53.5223V53.5264ZM46.1116 37.556C45.8338 37.4405 45.5974 37.2468 45.4357 36.9994C43.3748 37.7621 41.7866 38.3681 39.34 39.3864C39.34 39.4276 39.3483 39.4688 39.3483 39.51C39.3483 39.9552 39.1244 40.3469 38.7885 40.586C40.4638 43.3398 42.0064 45.9369 43.6692 49.2102C44.2498 46.2296 44.3493 45.7638 46.1116 37.556ZM43.4785 49.7502C42.052 47.0005 41.0651 45.1083 38.4029 40.7756C38.2826 40.8127 38.1541 40.8333 38.0214 40.8333C37.926 40.8333 37.8348 40.821 37.7435 40.8045C35.4131 45.9411 33.29 51.0529 32.5062 56.7584C36.4581 53.7284 39.9537 51.7084 43.4785 49.7502ZM37.333 40.6396C37.2708 40.6025 37.2128 40.5613 37.1589 40.5159C32.5436 43.5171 30.1633 45.2402 26.8708 47.9776C27.0284 48.2043 27.1196 48.4805 27.1196 48.7773C27.1196 49.1731 26.9579 49.5276 26.6925 49.7832C28.6912 52.5164 29.6284 53.7243 32.0957 56.7584C32.6514 53.077 33.5346 48.9711 37.3289 40.6437L37.333 40.6396ZM35.2555 65.1435C34.0613 63.2843 33.0826 61.5776 32.0999 57.5046C30.2712 58.1436 28.542 58.8155 26.9579 59.504C26.763 59.5864 26.5764 59.673 26.3857 59.7554C28.8737 61.3426 30.9388 62.6535 35.2555 65.1435ZM26.7506 59.1329C28.3388 58.4404 30.0721 57.7684 31.9091 57.1253C29.4294 54.0912 28.5005 52.9245 26.3691 50.0223C26.1783 50.1212 25.9586 50.179 25.7305 50.1831C25.4195 53.6006 25.4153 55.9669 26.1244 59.4133C26.3318 59.3185 26.5432 59.2278 26.7589 59.1329H26.7506ZM28.459 67.0563C27.2606 65.5928 25.942 63.6841 25.7802 59.9616C23.9308 60.3614 21.6667 60.8561 19.216 61.5652L19.2492 61.5858L19.2118 61.5941C21.8574 63.4821 24.2294 65.1435 28.4632 67.0563H28.459ZM18.8594 61.2395C21.0903 60.6088 22.5748 60.2254 25.4941 59.6029C21.8533 57.1129 20.6881 56.2596 17.9139 54.0211C17.7439 54.153 17.5407 54.2478 17.3209 54.2891C17.4329 56.5028 17.6734 58.6011 18.8594 61.2395ZM13.5391 62.5587C14.3146 62.3237 15.6913 61.9197 18.2913 61.3714C15.3969 59.4215 14.0575 58.4981 11.076 55.7937C11.4077 57.9745 11.7602 59.7925 13.5391 62.5587ZM18.3783 61.0169C17.6568 59.1618 17.0099 57.3108 16.8855 54.3014C16.4543 54.252 16.0852 54.0087 15.8613 53.6624C14.327 54.1159 12.7844 54.5982 11.0428 55.2826C13.4977 57.4881 14.7209 58.5723 18.3783 61.0169ZM11.0179 54.8291C12.2163 54.3756 13.4977 53.9015 15.6871 53.2584C15.6581 53.1471 15.6415 53.0317 15.6415 52.9122C15.6415 52.3886 15.9318 51.931 16.3589 51.6919C15.2393 48.5176 14.5758 46.0194 14.0367 41.7155C13.9289 41.7155 13.8252 41.6991 13.7257 41.6743C12.0422 45.5041 10.6406 49.4575 11.0179 54.8291ZM10.6571 54.9239C10.3959 50.7891 10.7857 47.3097 13.3318 41.5135C13.1825 41.4228 13.054 41.3033 12.9461 41.1631C9.61632 42.7997 7.28586 44.1272 5.26226 45.9205C5.38666 46.1266 5.4613 46.3698 5.4613 46.6254C5.4613 47.1036 5.21665 47.5241 4.84759 47.7714C6.18698 49.8739 7.8747 52.2938 10.6571 54.9239ZM3.80261 45.2732C3.88969 45.2567 3.98092 45.2485 4.07215 45.2485C4.42462 45.2485 4.74392 45.3804 4.98858 45.5907C6.81313 43.9788 9.03578 42.5977 12.7429 40.7715C12.6973 40.6355 12.6725 40.4912 12.6725 40.3386C12.6725 40.1655 12.7056 40.0006 12.7637 39.8481C8.31425 37.2262 4.8932 34.7197 2.77423 31.3558C2.4881 34.9547 2.2393 39.0648 3.80261 45.2691V45.2732ZM0.808679 42.2061C1.00358 43.3851 1.21091 44.391 1.46386 45.3639L1.49289 45.4711L1.51362 45.5453C1.53436 45.6236 1.55509 45.7061 1.57997 45.7844L1.58826 45.8133L1.59656 45.8504C2.06514 47.5035 2.6747 49.07 3.47502 50.8839C3.32159 49.8863 3.39623 48.9917 3.59942 47.9198C3.06864 47.7261 2.68714 47.219 2.68714 46.6254C2.68714 46.2915 2.8074 45.9823 3.00644 45.7432C2.14392 44.5683 1.26482 43.1914 0.675984 41.328C0.717451 41.629 0.763065 41.9217 0.808679 42.202V42.2061ZM2.4259 31.4671C1.59656 32.7368 0.622077 34.3817 0.356687 36.344C0.319366 36.6738 0.298632 36.9706 0.290339 37.1932C0.290339 37.3086 0.286192 37.4241 0.290339 37.5395V37.5683V37.6384V37.6961C0.522555 39.7697 0.775506 42.1113 3.25939 45.5082C3.33403 45.4546 3.41282 45.4051 3.4999 45.368C2.64568 41.8887 1.85365 37.6549 2.4259 31.463V31.4671ZM2.72032 29.9954C3.64918 26.9406 4.16338 25.4648 5.73084 22.3029C5.48618 22.1627 5.29129 21.9483 5.17518 21.6886C4.51585 21.8494 3.86481 22.0225 3.34233 22.1998C2.77837 24.5208 2.29321 26.5614 2.72032 29.9954ZM5.98794 17.1127C5.05907 18.605 4.43706 19.8747 3.54552 21.7175C3.8814 21.6103 4.32925 21.4825 5.07151 21.2929C5.06736 21.2434 5.06322 21.1981 5.06322 21.1486C5.06322 20.4766 5.56497 19.9242 6.21186 19.8335C6.15795 18.4566 6.27821 17.29 6.83387 15.8265C6.54774 16.2552 6.25747 16.6881 5.98794 17.1127ZM7.72956 14.5485C6.82972 16.5974 6.43993 17.8753 6.54774 19.8294C6.68459 19.8459 6.81313 19.8789 6.93339 19.9325C8.62111 16.6551 10.3461 13.6746 14.1072 9.38308C12.15 10.6775 10.1015 12.1286 7.72956 14.5485ZM7.22366 20.1015C7.25683 20.1262 7.29001 20.1551 7.31903 20.1839C9.44216 18.3 14.0284 14.4619 24.4574 9.19757C24.4409 9.12748 24.4326 9.05328 24.4284 8.97908C22.7283 8.92136 21.0115 8.89663 19.3404 8.86777C17.9388 8.84716 16.4916 8.82242 15.0651 8.7812C11.4699 12.8171 9.57485 15.5462 7.22366 20.1015ZM24.4657 8.58744C24.5735 8.17932 24.8763 7.85364 25.2661 7.71348C25.0007 5.40902 24.9426 3.79714 25.3407 2.31306C21.2354 4.46498 18.6645 6.15519 15.542 8.4143C21.7828 8.50087 22.72 8.51324 24.4657 8.59157V8.58744ZM22.5582 2.64698L22.326 2.73767L22.0648 2.83661C21.9901 2.86547 21.9114 2.89845 21.8284 2.93143L21.787 2.94792L20.8 3.39314C20.6673 3.45498 20.5429 3.51269 20.4227 3.56628C18.6437 4.64225 17.2007 5.51621 15.5959 7.98556C18.2166 6.09748 20.7088 4.40314 24.7767 2.26359C24.022 2.36253 23.2134 2.4862 22.5624 2.64698H22.5582ZM25.3863 1.76065C25.0877 1.82661 24.7892 1.90493 24.4948 1.98738C24.7767 1.94616 25.0753 1.90906 25.4029 1.86783C25.3946 1.83073 25.3905 1.79363 25.3863 1.76065ZM25.7346 1.69056C25.7346 1.69056 25.7346 1.7153 25.7346 1.72767C25.7595 1.71118 25.7844 1.69469 25.8093 1.6782C25.7844 1.68232 25.7554 1.68644 25.7305 1.69056H25.7346ZM25.9088 1.34428L25.8549 1.38138C26.0249 1.35252 26.1949 1.33191 26.3649 1.3113C26.3649 1.3113 26.3691 1.3113 26.3732 1.30718C26.2239 1.30718 26.083 1.32367 25.9088 1.34428ZM26.4852 1.58338C26.4188 1.62873 26.3483 1.67408 26.2737 1.72354C26.6013 1.66583 26.9496 1.60812 27.3311 1.5504C27.2938 1.5504 27.2523 1.5504 27.2109 1.5504C26.9787 1.5504 26.734 1.56277 26.481 1.5875L26.4852 1.58338ZM29.4999 0.280683C29.4999 0.280683 29.4874 0.280683 29.4791 0.280683C29.4791 0.280683 29.4916 0.280683 29.4999 0.280683ZM30.0431 0.416724H30.0058H29.9643L29.9726 0.272438L29.9601 0.350765H29.9436V0.416724C29.9021 0.416724 29.8648 0.416724 29.8233 0.416724C29.7196 0.416724 29.6201 0.416724 29.5123 0.424969H29.4667C29.4377 0.429092 29.4128 0.433214 29.3838 0.437337C29.2137 0.499174 28.9774 0.668195 28.8198 0.800113L28.7369 0.870195L28.6498 0.804236C28.571 0.746521 28.4093 0.709419 28.231 0.709419C28.2144 0.709419 28.2019 0.709419 28.1895 0.709419C27.8661 0.828971 27.6007 0.936155 27.244 1.12991C27.4804 1.17526 27.7541 1.23709 28.0734 1.32367L28.119 1.33603L28.1771 1.3484L28.1646 1.41848H28.1895C29.2054 1.27832 30.4204 1.12991 31.9547 0.989747C31.2083 0.688807 30.6195 0.478561 30.0514 0.420847L30.0431 0.416724ZM25.8466 2.11106V2.12342L25.7429 2.13991C25.4734 3.13343 25.237 4.14343 25.6517 7.63515C25.6683 7.63515 25.6849 7.63515 25.7056 7.63515C25.9254 7.63515 26.1327 7.68875 26.3152 7.78768C26.8335 7.22703 27.3519 6.6705 27.8702 6.11397C29.3257 4.55568 30.831 2.94792 32.2243 1.28244C30.6319 1.43085 28.5212 1.63697 25.8466 2.11518V2.11106ZM32.6058 1.36901C31.1959 3.0551 29.6782 4.68759 28.2102 6.27062C27.6753 6.84776 27.1404 7.42491 26.6096 8.00618C26.6718 8.06801 26.7298 8.13809 26.7796 8.2123C29.4874 7.25177 31.3493 6.63752 34.5464 5.72645C33.9908 4.04861 33.4932 2.59338 32.6058 1.37314V1.36901ZM35.3633 1.19587C34.5713 1.19587 33.7544 1.20824 32.9292 1.23297C33.5388 2.12342 34.0986 3.02212 34.9072 5.54094C39.8252 2.30069 40.4389 1.89257 41.0899 1.40612C39.6054 1.30718 37.7767 1.19587 35.3592 1.19587H35.3633ZM41.5378 1.54628C40.6421 2.20175 40.4182 2.35016 35.3841 5.68523C37.955 5.78005 39.3193 5.84601 41.9027 6.07686C42.0271 5.62339 42.3879 5.27298 42.844 5.15343C42.6533 3.40139 42.2137 2.57277 41.5378 1.54216V1.54628ZM41.9981 1.54628C42.8274 2.69645 43.0804 3.89196 43.2297 5.11221C43.4328 5.12045 43.6236 5.16992 43.7936 5.26062C44.71 4.12282 45.2657 3.32718 45.5891 2.46559C44.5359 2.18114 43.1592 1.82661 41.9981 1.54628ZM44.1295 5.51209C44.3576 5.74707 44.5027 6.06862 44.5027 6.42315C44.5027 6.5798 44.4737 6.72409 44.4239 6.86425C47.2644 8.42254 54.4341 12.4708 60.592 18.8647C58.5476 14.9402 54.2641 7.41666 45.9665 2.62636C45.614 3.44261 45.274 4.09396 44.1295 5.51209ZM60.1566 8.22467C55.4542 5.0916 50.1049 3.60339 46.8041 2.77477C50.08 4.83188 56.3748 9.24291 61.2928 19.3842C62.8437 13.6045 62.1594 11.1516 60.1566 8.22467ZM61.384 20.7817C60.3183 25.201 59.3107 28.3464 55.6989 35.9194C59.1489 38.1372 60.0612 38.8339 62.4746 41.0931C63.1671 35.4659 63.6149 29.2451 61.384 20.7817ZM61.6909 20.4643C63.2708 26.718 64.013 32.3947 62.9017 40.821C66.1901 36.5377 68.4832 33.3428 69.9968 29.2987C67.2226 25.1597 65.6717 23.6179 61.6909 20.4643Z" fill="url(#paint5_linear_24_351)"/></g><defs><linearGradient id="paint0_linear_24_351" x1="164.185" y1="42.8325" x2="164.185" y2="13.3486" gradientUnits="userSpaceOnUse"><stop stop-color="#D94498"/><stop offset="0.73" stop-color="#5DC8DC"/></linearGradient><linearGradient id="paint1_linear_24_351" x1="172.968" y1="42.5232" x2="172.968" y2="14.0411" gradientUnits="userSpaceOnUse"><stop stop-color="#D94498"/><stop offset="0.73" stop-color="#5DC8DC"/></linearGradient><linearGradient id="paint2_linear_24_351" x1="131.484" y1="42.8407" x2="131.484" y2="13.7072" gradientUnits="userSpaceOnUse"><stop stop-color="#D94498"/><stop offset="0.73" stop-color="#5DC8DC"/></linearGradient><linearGradient id="paint3_linear_24_351" x1="87.2844" y1="42.8407" x2="87.2844" y2="13.7114" gradientUnits="userSpaceOnUse"><stop stop-color="#D94498"/><stop offset="0.73" stop-color="#5DC8DC"/></linearGradient><linearGradient id="paint4_linear_24_351" x1="110.274" y1="42.8366" x2="110.274" y2="13.7114" gradientUnits="userSpaceOnUse"><stop stop-color="#D94498"/><stop offset="0.73" stop-color="#5DC8DC"/></linearGradient><linearGradient id="paint5_linear_24_351" x1="35.2057" y1="68.0004" x2="35.2057" y2="0.000357627" gradientUnits="userSpaceOnUse"><stop offset="0.26" stop-color="#D94498"/><stop offset="0.73" stop-color="#5DC8DC"/></linearGradient><clipPath id="clip0_24_351"><rect width="188" height="68" fill="white"/></clipPath></defs></svg>